<?xml version="1.0" encoding="utf-8"?>
<!-- Generator: Adobe Illustrator 25.2.0, SVG Export Plug-In . SVG Version: 6.00 Build 0)  -->
<svg version="1.1" id="Layer_1" xmlns="http://www.w3.org/2000/svg" xmlns:xlink="http://www.w3.org/1999/xlink" x="0px" y="0px"
	 viewBox="0 0 619 123" style="enable-background:new 0 0 619 123;" xml:space="preserve">
<style type="text/css">
	.st0{display:none;}
	.st1{display:inline;fill:#1551F0;}
	.st2{fill:#1551F0;}
</style>
<g class="st0">
	<path class="st1" d="M23.3,35.5h20.8v84.9H23.3V108c-4.8,10-18.1,14.8-27.6,15C-29.4,123.2-48,107.7-48,77.9
		c0-29.3,19.5-44.6,44.3-44.4c11.4,0,22.2,5.3,27,13.8V35.5z M-27,77.9c0,16.2,11.2,25.8,25.2,25.8c33.1,0,33.1-51.5,0-51.5
		C-15.8,52.2-27,61.7-27,77.9z"/>
	<path class="st1" d="M123,120.4V76c0-12.9-7.1-22.7-20.5-22.7c-12.9,0-21.7,9.1-21.7,22.1v45.1H60V35.3h20.2v9.8
		c8.6-8.4,17.2-11,27.9-11c20,0,36,15,36,41.7v44.6H123z"/>
	<path class="st1" d="M226.3,35.5h20.8v84.9h-20.8V108c-4.8,10-18.1,14.8-27.6,15c-25.2,0.2-43.8-15.3-43.8-45.1
		c0-29.3,19.5-44.6,44.3-44.4c11.4,0,22.2,5.3,27,13.8V35.5H226.3z M176,77.9c0,16.2,11.2,25.8,25.2,25.8c33.1,0,33.1-51.5,0-51.5
		C187.2,52.2,176,61.7,176,77.9z"/>
	<path class="st1" d="M284.2,0v47c5-8.8,18.9-13.6,27.9-13.6c24.8,0,43.2,15.2,43.2,44.4c0,27.9-18.8,44.4-43.8,44.4
		c-10.3,0-20.8-3.4-27.4-13.6v11.7h-21V0H284.2z M285.6,77.9c0,15.3,11.4,25,24.6,25c13.4,0,24.1-10.2,24.1-25
		c0-15.3-10.7-24.8-24.1-24.8C297,53.1,285.6,63,285.6,77.9z"/>
	<path class="st1" d="M389.1,0v120.4h-20.8V0H389.1z"/>
	<path class="st1" d="M489.3,78c0,24.5-16.7,44.3-44.3,44.3s-44.1-19.8-44.1-44.3c0-24.3,16.9-44.3,43.9-44.3
		C471.9,33.8,489.3,53.7,489.3,78z M421.9,78c0,12.9,7.8,25,23.1,25c15.3,0,23.1-12.1,23.1-25c0-12.7-9-25.2-23.1-25.2
		C429.9,52.9,421.9,65.3,421.9,78z"/>
	<path class="st1" d="M574.5,109.6c-9.8,9.6-20.2,13.4-32.7,13.4c-24.6,0-45.1-14.8-45.1-45s20.5-45,45.1-45
		c12.1,0,21.4,3.4,30.7,12.6l-13.3,14c-5-4.5-11.2-6.7-17.1-6.7c-14.1,0-24.5,10.3-24.5,25.2c0,16.2,11,24.8,24.1,24.8
		c6.7,0,13.4-1.9,18.6-7.1L574.5,109.6z"/>
	<path class="st1" d="M602.5,0v69.6l28.6-34.1h25.2v1.2l-34.6,38.8l39.4,43.4v1.6h-25.3L602.5,82v38.4h-21V0H602.5z"/>
</g>
<g>
	<g>
		<path class="st2" d="M376.4,106.8c0,2.3-0.7,4.1-2.1,5.6c-1.4,1.5-3.1,2.2-5.2,2.2c-2,0-3.8-0.7-5.2-2.2c-1.4-1.5-2.1-3.4-2.1-5.6
			V8.5c0-2.3,0.7-4.1,2.2-5.6c1.5-1.5,3.2-2.2,5.3-2.2c2.1,0,3.9,0.7,5.2,2.2c1.3,1.5,2,3.4,2,5.6V106.8z"/>
	</g>
	<g>
		<path class="st2" d="M376.4,114.3c0,2.3-0.7,4.1-2.1,5.6c-1.4,1.5-3.1,2.2-5.2,2.2c-2,0-3.8-0.7-5.2-2.2c-1.4-1.5-2.1-3.4-2.1-5.6
			V16.1c0-2.3,0.7-4.1,2.2-5.6c1.5-1.5,3.2-2.2,5.3-2.2c2.1,0,3.9,0.7,5.2,2.2c1.3,1.5,2,3.4,2,5.6V114.3z"/>
	</g>
	<g>
		<g>
			<path class="st2" d="M41.4,121.9c-7.1,0-13.5-1.9-19.1-5.6c-5.6-3.7-10.1-8.8-13.4-15.3c-3.3-6.4-4.9-13.7-4.9-21.8
				c0-8.1,1.8-15.4,5.3-21.9c3.6-6.5,8.4-11.6,14.5-15.3c6.1-3.7,12.9-5.6,20.5-5.6s14.4,1.9,20.4,5.6c6,3.8,10.8,8.9,14.4,15.3
				c3.6,6.5,5.3,13.8,5.3,21.9h-5.7c0,8.1-1.6,15.4-4.9,21.8c-3.3,6.4-7.7,11.5-13.4,15.3C54.9,120,48.5,121.9,41.4,121.9z
				 M44.4,108c5,0,9.4-1.3,13.3-3.8c3.9-2.5,7-6,9.2-10.3c2.2-4.4,3.4-9.3,3.4-14.7c0-5.5-1.1-10.5-3.4-14.9
				c-2.2-4.4-5.3-7.8-9.2-10.3c-3.9-2.5-8.3-3.8-13.3-3.8c-4.9,0-9.3,1.3-13.2,3.8c-3.9,2.5-7.1,6-9.3,10.3
				c-2.3,4.4-3.4,9.3-3.4,14.9c0,5.4,1.1,10.3,3.4,14.7c2.3,4.4,5.4,7.8,9.3,10.3C35.1,106.8,39.5,108,44.4,108z M77.1,121.4
				c-2.1,0-3.9-0.7-5.3-2.2c-1.4-1.5-2.1-3.4-2.1-5.6V90l2.8-16.3l12.1,5.5v34.4c0,2.3-0.7,4.1-2.1,5.6
				C81,120.7,79.2,121.4,77.1,121.4z"/>
			<path class="st2" d="M102.5,121.4c-2.1,0-3.9-0.7-5.3-2.2c-1.4-1.5-2.1-3.4-2.1-5.6V44.9c0-2.4,0.7-4.3,2.1-5.7
				c1.4-1.4,3.2-2.2,5.3-2.2c2.2,0,4,0.7,5.4,2.2c1.4,1.4,2,3.3,2,5.7v68.7c0,2.3-0.7,4.1-2,5.6
				C106.5,120.7,104.7,121.4,102.5,121.4z M162.5,121.4c-2.1,0-3.9-0.7-5.3-2.2c-1.4-1.5-2.1-3.4-2.1-5.6V75.7
				c0-5.9-1-10.6-3.1-14.3c-2-3.7-4.8-6.4-8.3-8.2c-3.5-1.8-7.4-2.7-11.9-2.7c-4.1,0-7.8,0.9-11.1,2.6c-3.3,1.7-5.9,4.1-7.9,7
				c-1.9,2.9-2.9,6.3-2.9,10.1h-9.2c0-6.5,1.5-12.2,4.5-17.3c3-5.1,7-9.1,12.2-12.1c5.2-3,11-4.5,17.4-4.5c6.7,0,12.7,1.5,18,4.5
				c5.3,3,9.5,7.5,12.6,13.3s4.6,13,4.6,21.6v37.9c0,2.3-0.7,4.1-2.1,5.6C166.4,120.7,164.6,121.4,162.5,121.4z"/>
			<path class="st2" d="M216.2,121.9c-7.1,0-13.5-1.9-19.1-5.6c-5.6-3.7-10.1-8.8-13.4-15.3c-3.3-6.4-4.9-13.7-4.9-21.8
				c0-8.1,1.8-15.4,5.3-21.9c3.6-6.5,8.4-11.6,14.5-15.3c6.1-3.7,12.9-5.6,20.5-5.6s14.4,1.9,20.4,5.6c6,3.8,10.8,8.9,14.4,15.3
				c3.6,6.5,5.3,13.8,5.3,21.9h-5.7c0,8.1-1.6,15.4-4.9,21.8c-3.3,6.4-7.7,11.5-13.4,15.3C229.7,120,223.3,121.9,216.2,121.9z
				 M219.1,108c5,0,9.4-1.3,13.3-3.8c3.9-2.5,7-6,9.2-10.3c2.2-4.4,3.4-9.3,3.4-14.7c0-5.5-1.1-10.5-3.4-14.9
				c-2.2-4.4-5.3-7.8-9.2-10.3c-3.9-2.5-8.3-3.8-13.3-3.8c-4.9,0-9.3,1.3-13.2,3.8c-3.9,2.5-7.1,6-9.3,10.3
				c-2.3,4.4-3.4,9.3-3.4,14.9c0,5.4,1.1,10.3,3.4,14.7c2.3,4.4,5.4,7.8,9.3,10.3C209.9,106.8,214.3,108,219.1,108z M251.9,121.4
				c-2.1,0-3.9-0.7-5.3-2.2c-1.4-1.5-2.1-3.4-2.1-5.6V90l2.8-16.3l12.1,5.5v34.4c0,2.3-0.7,4.1-2.1,5.6
				C255.8,120.7,254,121.4,251.9,121.4z"/>
			<path class="st2" d="M310,121.9c-7.6,0-14.4-1.9-20.4-5.6c-6-3.7-10.8-8.9-14.3-15.3c-3.5-6.5-5.3-13.8-5.4-21.9V8.8
				c0-2.4,0.7-4.3,2.1-5.7c1.4-1.4,3.2-2.2,5.3-2.2c2.2,0,4,0.7,5.4,2.2c1.4,1.4,2,3.3,2,5.7v41.6c3.4-4.3,7.5-7.7,12.3-10.2
				c4.8-2.5,10.1-3.8,15.8-3.8c7.1,0,13.5,1.9,19.1,5.6c5.6,3.8,10.1,8.8,13.4,15.3c3.3,6.4,4.9,13.7,4.9,21.8
				c0,8.1-1.8,15.4-5.3,21.9c-3.6,6.5-8.3,11.6-14.4,15.3C324.5,120,317.7,121.9,310,121.9z M310,108c5,0,9.4-1.3,13.3-3.8
				c3.9-2.5,7-6,9.3-10.4c2.3-4.4,3.4-9.3,3.4-14.8c0-5.5-1.1-10.5-3.4-14.8c-2.3-4.3-5.4-7.7-9.3-10.2c-3.9-2.5-8.3-3.8-13.3-3.8
				c-4.9,0-9.3,1.3-13.2,3.8c-3.9,2.5-7,5.9-9.3,10.2c-2.2,4.3-3.4,9.2-3.4,14.8c0,5.4,1.1,10.4,3.4,14.8c2.2,4.4,5.3,7.9,9.3,10.4
				C300.7,106.8,305.1,108,310,108z"/>
			<path class="st2" d="M428.2,121.9c-7.9,0-14.8-1.8-20.9-5.5c-6-3.6-10.8-8.7-14.2-15.1c-3.5-6.4-5.2-13.8-5.2-22.1
				c0-8.4,1.7-15.8,5.2-22.3c3.5-6.4,8.2-11.5,14.2-15.1c6-3.6,13-5.5,20.9-5.5c7.8,0,14.7,1.8,20.7,5.5c6,3.6,10.8,8.7,14.2,15.1
				c3.5,6.4,5.2,13.8,5.2,22.3c0,8.3-1.7,15.7-5.1,22.1c-3.4,6.4-8.1,11.5-14.2,15.1C443.1,120.1,436.1,121.9,428.2,121.9z
				 M428.2,108c5.1,0,9.5-1.2,13.4-3.7c3.9-2.5,6.9-5.9,9.1-10.2s3.3-9.3,3.3-14.9c0-5.6-1.1-10.7-3.3-15c-2.2-4.4-5.2-7.8-9.1-10.2
				c-3.9-2.5-8.4-3.7-13.4-3.7c-5.1,0-9.5,1.2-13.4,3.7c-3.9,2.5-7,5.9-9.2,10.2c-2.2,4.4-3.4,9.4-3.4,15c0,5.6,1.1,10.6,3.4,14.9
				c2.2,4.3,5.3,7.7,9.2,10.2C418.7,106.8,423.2,108,428.2,108z"/>
			<path class="st2" d="M515.1,121.9c-7.8,0-14.7-1.9-20.8-5.6c-6.1-3.7-10.9-8.8-14.3-15.3c-3.5-6.4-5.2-13.7-5.2-21.8
				c0-8.3,1.7-15.7,5.1-22.2c3.4-6.5,8.1-11.5,14-15.2c5.9-3.6,12.8-5.5,20.4-5.5c5.7,0,11,1.2,15.8,3.5c4.8,2.3,9.1,5.8,12.8,10.4
				c1.4,1.6,1.8,3.3,1.5,5.1c-0.4,1.7-1.5,3.3-3.2,4.6c-1.4,1-2.9,1.4-4.5,1c-1.7-0.4-3.2-1.3-4.5-2.7c-4.8-5.3-10.7-8-17.8-8
				c-5,0-9.3,1.2-13.1,3.6c-3.8,2.4-6.8,5.8-8.9,10.1c-2.1,4.3-3.2,9.4-3.2,15.3c0,5.5,1.1,10.5,3.3,14.8c2.2,4.3,5.2,7.7,9.1,10.2
				c3.9,2.5,8.4,3.8,13.6,3.8c3.4,0,6.4-0.4,9-1.3c2.6-0.9,4.9-2.2,7.1-4.1c1.6-1.3,3.2-2.1,4.8-2.2c1.7-0.2,3.1,0.3,4.4,1.5
				c1.7,1.4,2.6,3.1,2.8,4.9c0.2,1.8-0.4,3.4-1.8,4.9C534.4,118.5,525.6,121.9,515.1,121.9z"/>
			<path class="st2" d="M562.1,121.3c-2.1,0-3.9-0.7-5.2-2.1c-1.3-1.4-2-3.2-2-5.5V8.5c0-2.3,0.7-4.1,2-5.5c1.3-1.4,3-2.1,5.2-2.1
				c2.1,0,3.9,0.7,5.2,2.1c1.3,1.4,2,3.2,2,5.5v105.2c0,2.3-0.7,4.1-2,5.5C566,120.6,564.3,121.3,562.1,121.3z M569,90.5L560,80
				l44.8-42.2c1.5-1.4,3.1-2.1,4.9-2c1.8,0.1,3.3,0.9,4.6,2.5c1.4,1.5,2,3.2,1.9,5.1c-0.1,1.8-0.9,3.5-2.3,4.9L569,90.5z
				 M614.3,120.5c-1.6,1.3-3.3,1.9-5.2,1.8c-1.9-0.2-3.5-1.1-4.7-2.7l-29.6-38.7l10.2-10.2l30.4,39.4c1.3,1.6,1.8,3.4,1.7,5.3
				C616.8,117.4,615.9,119.1,614.3,120.5z"/>
		</g>
	</g>
</g>
</svg>
