<?xml version="1.0" encoding="utf-8"?>
<!-- Generator: Adobe Illustrator 22.1.0, SVG Export Plug-In . SVG Version: 6.00 Build 0)  -->
<svg width="175" height="30" version="1.1" id="Layer_1" xmlns="http://www.w3.org/2000/svg" xmlns:xlink="http://www.w3.org/1999/xlink" x="0px" y="0px"
	 viewBox="0 0 175 19" style="enable-background:new 0 0 175 19;" xml:space="preserve">
<style type="text/css">
	.st0{fill:#1551F0;}
</style>
<g>
	<path class="st0" d="M72.3,35.5h20.8v84.9H72.3V108c-4.8,10-18.1,14.8-27.6,15C19.6,123.2,1,107.7,1,77.9
		c0-29.3,19.5-44.6,44.3-44.4c11.4,0,22.2,5.3,27,13.8V35.5z M22,77.9c0,16.2,11.2,25.8,25.2,25.8c33.1,0,33.1-51.5,0-51.5
		C33.2,52.2,22,61.7,22,77.9z"/>
	<path class="st0" d="M172,120.4V76c0-12.9-7.1-22.7-20.5-22.7c-12.9,0-21.7,9.1-21.7,22.1v45.1h-20.8V35.3h20.2v9.8
		c8.6-8.4,17.2-11,27.9-11c20,0,36,15,36,41.7v44.6H172z"/>
	<path class="st0" d="M275.3,35.5h20.8v84.9h-20.8V108c-4.8,10-18.1,14.8-27.6,15c-25.2,0.2-43.8-15.3-43.8-45.1
		c0-29.3,19.5-44.6,44.3-44.4c11.4,0,22.2,5.3,27,13.8V35.5z M225,77.9c0,16.2,11.2,25.8,25.2,25.8c33.1,0,33.1-51.5,0-51.5
		C236.2,52.2,225,61.7,225,77.9z"/>
	<path class="st0" d="M333.2,0v47c5-8.8,18.9-13.6,27.9-13.6c24.8,0,43.2,15.2,43.2,44.4c0,27.9-18.8,44.4-43.8,44.4
		c-10.3,0-20.8-3.4-27.4-13.6v11.7h-21V0H333.2z M334.6,77.9c0,15.3,11.4,25,24.6,25c13.4,0,24.1-10.2,24.1-25
		c0-15.3-10.7-24.8-24.1-24.8C346,53.1,334.6,63,334.6,77.9z"/>
	<path class="st0" d="M438.1,0v120.4h-20.8V0H438.1z"/>
	<path class="st0" d="M538.3,78c0,24.5-16.7,44.3-44.3,44.3s-44.1-19.8-44.1-44.3c0-24.3,16.9-44.3,43.9-44.3
		C520.9,33.8,538.3,53.7,538.3,78z M470.9,78c0,12.9,7.8,25,23.1,25c15.3,0,23.1-12.1,23.1-25c0-12.7-9-25.2-23.1-25.2
		C478.9,52.9,470.9,65.3,470.9,78z"/>
	<path class="st0" d="M623.5,109.6c-9.8,9.6-20.2,13.4-32.7,13.4c-24.6,0-45.1-14.8-45.1-45s20.5-45,45.1-45
		c12.1,0,21.4,3.4,30.7,12.6l-13.3,14c-5-4.5-11.2-6.7-17.1-6.7c-14.1,0-24.5,10.3-24.5,25.2c0,16.2,11,24.8,24.1,24.8
		c6.7,0,13.4-1.9,18.6-7.1L623.5,109.6z"/>
	<path class="st0" d="M651.5,0v69.6l28.6-34.1h25.2v1.2l-34.6,38.8l39.4,43.4v1.6h-25.3L651.5,82v38.4h-21V0H651.5z"/>
</g>
</svg>
